<svg xmlns="http://www.w3.org/2000/svg" width="512" height="512" fill="none"><path fill="#070B30" d="m70.063 469.217 59.883 34.573V227.202l-59.883-34.573v276.588ZM201.506 111.805v69.147l59.883 34.573.001-69.147-59.884-34.573ZM321.272 180.952l-59.883 34.573ZM261.389 215.525v138.312ZM321.272 388.41V180.952ZM261.389 353.837l59.883 34.573ZM321.272 180.952l-59.883 34.573v138.312l59.883 34.573V180.952Z"/><path fill="#53C68C" d="m261.389 215.525 59.883-34.573v207.44l59.884-34.573V146.378l59.883-34.573V42.658l-179.65 103.72v69.147Z"/><path fill="#53C68C" d="m129.946 503.79 179.649-103.72v-69.147L189.829 400.07V192.629l-59.883 34.573V503.79Z"/><path fill="#1B2050" d="m381.156 8.084 59.883 34.574-179.65 103.72-59.883-34.573 179.65-103.72ZM129.946 158.055l-59.883 34.574 59.883 34.573 59.883-34.573-59.883-34.574ZM249.712 296.349l-59.883 34.574v69.147l119.766-69.147-59.883-34.574Z"/></svg>
